<svg width="376" height="82" viewBox="0 0 376 82" fill="none" xmlns="http://www.w3.org/2000/svg">
<path d="M22.6488 54.2406C17.7233 54.1334 13.2084 57.3689 11.5665 59C4.23229 39.1974 14.4366 26.8246 19.503 22.8217C36.5778 9.33091 53.6155 18.922 60 25.4039C45.8804 18.2225 34.3232 25.0426 30.3095 29.3503C20.5665 38.1639 21.1428 49.6162 22.6488 54.2406Z" fill="#FF4F00"/>
<path d="M57.5126 43.1575C50.5435 29.3609 38.2671 31.1115 33 33.7114C48.6382 19.7502 61.1924 30.7695 65.5148 38.0243C70.5392 46.8124 66.798 56.0584 64.2993 59.5829C54.9804 65.7439 48.4637 67.7614 46.3703 68C47.7476 66.8499 48.0252 65.9459 47.9919 65.6377C59.498 60.9562 59.1333 48.7002 57.5126 43.1575Z" fill="#FF4F00"/>
<ellipse cx="67" cy="27.5" rx="5" ry="5.5" fill="#001052"/>
<circle cx="25" cy="8" r="8" fill="#001052"/>
<path d="M17.6887 58.1485C7.12051 62.4265 1.93137 70.6239 0.657824 74.1879C-1.92425 82.8245 3.85768 78.917 4.88931 78.197C12.0088 74.3941 19.5481 78.2986 21.9202 78.917C29.2395 82 33.1646 82 38.5217 82H38.5373C47.561 82 52.0564 78.0745 54.8874 76.073C60.0666 72.748 70.2239 63.493 71.6694 61.8499C73.0099 59.5884 69.915 60.5116 68.7784 61.13C66.7122 61.2345 57.9433 66.7851 55.7751 68.0189C49.0665 71.311 48.0349 71.1019 42.151 71.4096C36.2671 71.7173 32.3445 68.8405 30.2812 66.7851C28.218 64.7298 30.3832 64.1114 31.1059 64.1114C34.3058 64.0098 36.1651 64.7268 38.5373 65.5513C40.9094 66.3758 42.5648 66.7851 44.1123 66.7851C47.2102 66.6835 45.5578 63.6991 45.0419 63.493C44.5261 63.2869 41.8421 61.3361 41.0144 60.5116C39.362 58.9701 38.8492 59.3823 38.5373 58.9701C34.5739 57.3258 29.7984 56.365 27.9061 56.0902C23.3645 55.5955 19.2022 57.2563 17.6887 58.1485Z" fill="#001052"/>
<rect x="32" y="44" width="15" height="5" rx="1" fill="#001052"/>
<rect x="37" y="54" width="15" height="5" rx="1" transform="rotate(-90 37 54)" fill="#001052"/>
<path d="M109.04 0.639999C110.107 0.639999 110.981 0.853333 111.664 1.28C112.389 1.664 112.987 2.19733 113.456 2.88C113.925 3.52 114.309 4.26667 114.608 5.12C114.907 5.97333 115.163 6.848 115.376 7.744C117.083 14.656 118.491 20.352 119.6 24.832C120.709 29.312 121.584 32.9387 122.224 35.712C122.864 38.4427 123.312 40.4693 123.568 41.792C123.824 43.1147 123.952 44.032 123.952 44.544C123.952 45.1413 123.803 45.5467 123.504 45.76C123.248 45.9733 122.821 46.08 122.224 46.08H118.96C117.125 46.08 115.653 45.8667 114.544 45.44C113.477 44.9707 112.645 44.3093 112.048 43.456C111.493 42.6027 111.088 41.5787 110.832 40.384C110.576 39.1467 110.363 37.76 110.192 36.224H99.056L96.944 45.056C96.7307 45.7387 96.24 46.08 95.472 46.08H92.08C91.3973 46.08 90.6933 46.016 89.968 45.888C89.2427 45.7173 88.5813 45.4613 87.984 45.12C87.4293 44.7787 86.96 44.352 86.576 43.84C86.192 43.2853 86 42.624 86 41.856C86 40.9173 86.2987 39.3813 86.896 37.248C87.4933 35.1147 88.24 32.704 89.136 30.016C90.0747 27.2853 91.0987 24.448 92.208 21.504C93.36 18.5173 94.4693 15.7013 95.536 13.056C96.6027 10.4107 97.5627 8.08533 98.416 6.08C99.312 4.07467 99.9947 2.66667 100.464 1.856C100.805 1.25867 101.104 0.917333 101.36 0.832001C101.659 0.704 102.192 0.639999 102.96 0.639999H109.04ZM101.36 26.944H108.72L106.032 10.048L101.36 26.944Z" fill="#FF4F00"/>
<path d="M148.537 26.176C148.281 26.176 147.982 26.176 147.641 26.176C147.342 26.1333 147.044 26.0907 146.745 26.048C146.446 25.9627 146.19 25.8773 145.977 25.792C145.764 25.664 145.657 25.5147 145.657 25.344C145.657 24.7893 145.678 24.2773 145.721 23.808C145.764 23.3387 145.785 22.848 145.785 22.336C145.785 21.3973 145.657 20.6293 145.401 20.032C145.145 19.4347 144.633 19.136 143.865 19.136C142.67 19.136 141.668 19.9253 140.857 21.504C140.089 23.04 139.598 25.3653 139.385 28.48C139.3 29.8453 139.172 31.4027 139.001 33.152C138.873 34.8587 138.745 36.5227 138.617 38.144C138.489 39.7227 138.382 41.1307 138.297 42.368C138.212 43.6053 138.169 44.416 138.169 44.8C138.169 45.2267 138.02 45.5467 137.721 45.76C137.422 45.9733 137.102 46.08 136.761 46.08H134.457C133.134 46.08 132.046 45.952 131.193 45.696C130.382 45.3973 129.721 44.992 129.209 44.48C128.74 43.968 128.398 43.3493 128.185 42.624C128.014 41.856 127.929 40.9813 127.929 40C127.929 39.36 127.95 38.464 127.993 37.312C128.078 36.1173 128.206 34.496 128.377 32.448C128.548 30.3573 128.74 27.7333 128.953 24.576C129.209 21.376 129.508 17.4293 129.849 12.736C129.934 11.4987 130.382 10.88 131.193 10.88H133.689C134.884 10.88 135.886 11.008 136.697 11.264C137.508 11.52 138.169 11.8827 138.681 12.352C139.193 12.7787 139.556 13.2907 139.769 13.888C140.025 14.4853 140.196 15.104 140.281 15.744C140.793 14.7627 141.39 13.9307 142.073 13.248C142.798 12.5227 143.545 11.9467 144.313 11.52C145.081 11.0507 145.87 10.7307 146.681 10.56C147.492 10.3467 148.238 10.24 148.921 10.24C149.732 10.24 150.542 10.3893 151.353 10.688C152.206 10.9867 152.974 11.4347 153.657 12.032C154.34 12.6293 154.873 13.3973 155.257 14.336C155.684 15.2747 155.897 16.384 155.897 17.664C155.897 18.816 155.726 19.904 155.385 20.928C155.044 21.952 154.553 22.8693 153.913 23.68C153.273 24.448 152.484 25.0667 151.545 25.536C150.649 25.9627 149.646 26.176 148.537 26.176Z" fill="#FF4F00"/>
<path d="M172.826 46.72C169.882 46.72 167.429 46.3147 165.466 45.504C163.546 44.6507 162.01 43.4987 160.858 42.048C159.706 40.5973 158.895 38.912 158.426 36.992C157.957 35.0293 157.722 32.9387 157.722 30.72C157.722 28.16 158.021 25.664 158.618 23.232C159.258 20.7573 160.325 18.56 161.818 16.64C163.311 14.72 165.274 13.184 167.706 12.032C170.181 10.8373 173.253 10.24 176.922 10.24C182.298 10.24 186.138 11.5627 188.442 14.208C190.789 16.8107 191.962 20.48 191.962 25.216C191.962 26.5387 191.855 28.0107 191.642 29.632C191.471 31.2107 191.109 32.7893 190.554 34.368C190.042 35.9467 189.317 37.4827 188.378 38.976C187.482 40.4693 186.33 41.792 184.922 42.944C183.514 44.096 181.807 45.0133 179.802 45.696C177.839 46.3787 175.514 46.72 172.826 46.72ZM175.834 18.752C174.213 18.752 172.911 19.1787 171.93 20.032C170.991 20.8427 170.266 21.8453 169.754 23.04C169.285 24.192 168.965 25.4293 168.794 26.752C168.666 28.032 168.602 29.12 168.602 30.016C168.602 32.832 169.05 34.9013 169.946 36.224C170.842 37.5467 172.122 38.208 173.786 38.208C175.279 38.208 176.495 37.7387 177.434 36.8C178.415 35.8613 179.162 34.7307 179.674 33.408C180.229 32.0853 180.591 30.6987 180.762 29.248C180.975 27.7973 181.082 26.5813 181.082 25.6C181.082 23.4667 180.677 21.8027 179.866 20.608C179.098 19.3707 177.754 18.752 175.834 18.752Z" fill="#FF4F00"/>
<path d="M217.668 38.528C216.601 40.448 215.3 41.8773 213.764 42.816C212.228 43.712 210.308 44.16 208.004 44.16C206.255 44.16 204.655 43.8827 203.204 43.328C201.753 42.7733 200.516 41.8987 199.492 40.704C198.468 39.5093 197.657 38.016 197.06 36.224C196.505 34.3893 196.228 32.2133 196.228 29.696C196.228 27.648 196.441 25.4933 196.868 23.232C197.295 20.928 198.063 18.816 199.172 16.896C200.324 14.976 201.881 13.3973 203.844 12.16C205.807 10.88 208.324 10.24 211.396 10.24C212.676 10.24 213.764 10.3893 214.66 10.688C215.599 10.944 216.388 11.3067 217.028 11.776C217.711 12.2453 218.244 12.8 218.628 13.44C219.055 14.08 219.375 14.7627 219.588 15.488C219.588 15.5307 219.588 15.3813 219.588 15.04C219.631 14.656 219.673 14.2293 219.716 13.76C219.759 13.2907 219.78 12.8427 219.78 12.416C219.823 11.9467 219.844 11.648 219.844 11.52C219.887 11.0933 220.164 10.88 220.676 10.88H223.62C225.839 10.88 227.439 11.3493 228.42 12.288C229.444 13.184 229.956 14.912 229.956 17.472C229.956 17.8133 229.935 18.6027 229.892 19.84C229.849 21.0347 229.764 22.4853 229.636 24.192C229.551 25.8987 229.423 27.7973 229.252 29.888C229.081 31.936 228.889 34.0053 228.676 36.096C228.463 38.1867 228.228 40.192 227.972 42.112C227.716 44.032 227.439 45.7173 227.14 47.168C226.841 48.6187 226.329 50.0267 225.604 51.392C224.879 52.7573 223.855 53.9733 222.532 55.04C221.209 56.1067 219.503 56.96 217.412 57.6C215.364 58.24 212.847 58.56 209.86 58.56C207.599 58.56 205.615 58.3467 203.908 57.92C202.244 57.4933 200.857 56.9173 199.748 56.192C198.639 55.5093 197.785 54.72 197.188 53.824C196.633 52.928 196.356 52.032 196.356 51.136C196.356 50.3253 196.527 49.6213 196.868 49.024C197.209 48.4267 197.657 47.936 198.212 47.552C198.767 47.168 199.364 46.8693 200.004 46.656C200.687 46.4853 201.327 46.4 201.924 46.4C202.649 46.4 203.183 46.6133 203.524 47.04C203.865 47.4667 204.249 47.936 204.676 48.448C205.103 49.0027 205.7 49.4933 206.468 49.92C207.236 50.3467 208.431 50.56 210.052 50.56C212.868 50.56 214.831 49.5147 215.94 47.424C217.092 45.376 217.668 42.4107 217.668 38.528ZM212.292 35.648C213.828 35.648 215.023 35.2853 215.876 34.56C216.772 33.8347 217.455 32.96 217.924 31.936C218.393 30.912 218.692 29.8453 218.82 28.736C218.948 27.6267 219.012 26.6667 219.012 25.856C219.012 23.296 218.607 21.4827 217.796 20.416C217.028 19.3067 215.855 18.752 214.276 18.752C212.697 18.752 211.46 19.1787 210.564 20.032C209.668 20.8853 208.985 21.9093 208.516 23.104C208.089 24.256 207.812 25.4293 207.684 26.624C207.556 27.776 207.492 28.672 207.492 29.312C207.492 31.4453 207.855 33.0453 208.58 34.112C209.305 35.136 210.543 35.648 212.292 35.648Z" fill="#FF4F00"/>
<path d="M255.455 36.736C257.204 36.736 258.676 36.48 259.871 35.968C261.108 35.456 262.154 34.88 263.007 34.24C263.86 33.6 264.607 33.024 265.247 32.512C265.93 32 266.612 31.744 267.295 31.744C268.148 31.744 268.575 32.384 268.575 33.664C268.575 34.3467 268.49 35.1787 268.319 36.16C268.148 37.0987 267.914 38.1653 267.615 39.36C267.444 40.0853 267.018 40.8747 266.335 41.728C265.695 42.5813 264.799 43.392 263.647 44.16C262.495 44.8853 261.066 45.504 259.359 46.016C257.695 46.4853 255.775 46.72 253.599 46.72C251.423 46.72 249.247 46.4 247.071 45.76C244.895 45.12 242.954 44.032 241.247 42.496C239.54 40.96 238.154 38.8907 237.087 36.288C236.02 33.6853 235.487 30.4213 235.487 26.496C235.487 25.088 235.572 23.4667 235.743 21.632C235.956 19.7547 236.34 17.8347 236.895 15.872C237.45 13.9093 238.218 11.9893 239.199 10.112C240.223 8.192 241.524 6.48533 243.103 4.992C244.682 3.49867 246.602 2.304 248.863 1.408C251.167 0.469334 253.898 0 257.055 0C259.572 0 261.748 0.298667 263.583 0.896C265.46 1.49333 266.996 2.32533 268.191 3.392C269.428 4.416 270.324 5.632 270.879 7.04C271.476 8.448 271.775 9.94133 271.775 11.52C271.775 14.2507 270.964 16.256 269.343 17.536C267.764 18.7733 265.503 19.392 262.559 19.392C261.62 19.392 261.023 19.328 260.767 19.2C260.554 19.0293 260.447 18.7093 260.447 18.24C260.404 16.7893 260.362 15.5307 260.319 14.464C260.276 13.3973 260.127 12.5227 259.871 11.84C259.615 11.1147 259.21 10.6027 258.655 10.304C258.143 9.96267 257.418 9.792 256.479 9.792C255.114 9.792 253.94 10.0907 252.959 10.688C252.02 11.2427 251.21 11.9893 250.527 12.928C249.887 13.824 249.354 14.848 248.927 16C248.543 17.152 248.223 18.3253 247.967 19.52C247.754 20.7147 247.604 21.8667 247.519 22.976C247.476 24.0853 247.455 25.0453 247.455 25.856C247.455 29.7813 248.095 32.576 249.375 34.24C250.698 35.904 252.724 36.736 255.455 36.736Z" fill="#FF4F00"/>
<path d="M287.339 16.32C287.339 17.216 287.254 18.4747 287.083 20.096C286.955 21.7173 286.806 23.4027 286.635 25.152C286.507 26.9013 286.358 28.544 286.187 30.08C286.059 31.616 285.995 32.7253 285.995 33.408C285.995 34.9013 286.358 36.0747 287.083 36.928C287.851 37.7387 288.896 38.144 290.219 38.144C291.371 38.144 292.331 37.696 293.099 36.8C293.91 35.8613 294.55 34.6667 295.019 33.216C295.531 31.7227 295.936 30.0373 296.235 28.16C296.534 26.2827 296.747 24.384 296.875 22.464C297.046 20.544 297.174 18.688 297.259 16.896C297.387 15.0613 297.515 13.4827 297.643 12.16C297.686 11.8187 297.814 11.52 298.027 11.264C298.24 11.008 298.582 10.88 299.051 10.88H301.355C302.678 10.88 303.744 11.0293 304.555 11.328C305.408 11.584 306.07 11.968 306.539 12.48C307.051 12.992 307.392 13.632 307.563 14.4C307.776 15.1253 307.883 15.9787 307.883 16.96C307.883 17.6 307.84 18.5173 307.755 19.712C307.712 20.864 307.606 22.4853 307.435 24.576C307.264 26.624 307.051 29.248 306.795 32.448C306.582 35.6053 306.304 39.5307 305.963 44.224C305.878 45.12 305.771 45.6533 305.643 45.824C305.558 45.9947 305.216 46.08 304.619 46.08H302.123C300.843 46.08 299.776 45.9307 298.923 45.632C298.112 45.3333 297.451 44.9493 296.939 44.48C296.427 44.0107 296.064 43.456 295.851 42.816C295.638 42.176 295.51 41.5147 295.467 40.832C294.827 41.9413 294.102 42.88 293.291 43.648C292.523 44.416 291.712 45.0347 290.859 45.504C290.006 45.9307 289.131 46.2293 288.235 46.4C287.339 46.6133 286.464 46.72 285.611 46.72C283.99 46.72 282.539 46.464 281.259 45.952C279.979 45.3973 278.891 44.672 277.995 43.776C277.142 42.88 276.48 41.8133 276.011 40.576C275.542 39.3387 275.307 38.016 275.307 36.608C275.307 36.0533 275.328 35.1573 275.371 33.92C275.456 32.64 275.542 31.2107 275.627 29.632C275.755 28.0533 275.883 26.3893 276.011 24.64C276.139 22.848 276.246 21.1627 276.331 19.584C276.459 18.0053 276.566 16.6187 276.651 15.424C276.779 14.2293 276.864 13.376 276.907 12.864C276.992 12.096 277.163 11.584 277.419 11.328C277.675 11.0293 278.102 10.88 278.699 10.88H280.747C282.07 10.88 283.158 11.008 284.011 11.264C284.864 11.52 285.526 11.8827 285.995 12.352C286.507 12.8213 286.848 13.3973 287.019 14.08C287.232 14.72 287.339 15.4667 287.339 16.32Z" fill="#FF4F00"/>
<path d="M334.162 26.176C333.906 26.176 333.607 26.176 333.266 26.176C332.967 26.1333 332.669 26.0907 332.37 26.048C332.071 25.9627 331.815 25.8773 331.602 25.792C331.389 25.664 331.282 25.5147 331.282 25.344C331.282 24.7893 331.303 24.2773 331.346 23.808C331.389 23.3387 331.41 22.848 331.41 22.336C331.41 21.3973 331.282 20.6293 331.026 20.032C330.77 19.4347 330.258 19.136 329.49 19.136C328.295 19.136 327.293 19.9253 326.482 21.504C325.714 23.04 325.223 25.3653 325.01 28.48C324.925 29.8453 324.797 31.4027 324.626 33.152C324.498 34.8587 324.37 36.5227 324.242 38.144C324.114 39.7227 324.007 41.1307 323.922 42.368C323.837 43.6053 323.794 44.416 323.794 44.8C323.794 45.2267 323.645 45.5467 323.346 45.76C323.047 45.9733 322.727 46.08 322.386 46.08H320.082C318.759 46.08 317.671 45.952 316.818 45.696C316.007 45.3973 315.346 44.992 314.834 44.48C314.365 43.968 314.023 43.3493 313.81 42.624C313.639 41.856 313.554 40.9813 313.554 40C313.554 39.36 313.575 38.464 313.618 37.312C313.703 36.1173 313.831 34.496 314.002 32.448C314.173 30.3573 314.365 27.7333 314.578 24.576C314.834 21.376 315.133 17.4293 315.474 12.736C315.559 11.4987 316.007 10.88 316.818 10.88H319.314C320.509 10.88 321.511 11.008 322.322 11.264C323.133 11.52 323.794 11.8827 324.306 12.352C324.818 12.7787 325.181 13.2907 325.394 13.888C325.65 14.4853 325.821 15.104 325.906 15.744C326.418 14.7627 327.015 13.9307 327.698 13.248C328.423 12.5227 329.17 11.9467 329.938 11.52C330.706 11.0507 331.495 10.7307 332.306 10.56C333.117 10.3467 333.863 10.24 334.546 10.24C335.357 10.24 336.167 10.3893 336.978 10.688C337.831 10.9867 338.599 11.4347 339.282 12.032C339.965 12.6293 340.498 13.3973 340.882 14.336C341.309 15.2747 341.522 16.384 341.522 17.664C341.522 18.816 341.351 19.904 341.01 20.928C340.669 21.952 340.178 22.8693 339.538 23.68C338.898 24.448 338.109 25.0667 337.17 25.536C336.274 25.9627 335.271 26.176 334.162 26.176Z" fill="#FF4F00"/>
<path d="M341.945 38.208C341.945 34.368 343.673 31.36 347.129 29.184C350.585 27.008 355.684 25.8347 362.425 25.664C362.468 25.1947 362.489 24.8107 362.489 24.512C362.532 24.1707 362.553 23.7653 362.553 23.296C362.553 21.9307 362.297 20.8427 361.785 20.032C361.273 19.2213 360.206 18.816 358.585 18.816C357.689 18.816 356.964 18.944 356.409 19.2C355.854 19.456 355.406 19.8187 355.065 20.288C354.724 20.7147 354.446 21.248 354.233 21.888C354.02 22.528 353.828 23.232 353.657 24C353.572 24.384 353.38 24.64 353.081 24.768C352.782 24.8533 352.313 24.896 351.673 24.896C347.321 24.896 345.145 23.2533 345.145 19.968C345.145 18.6453 345.444 17.3867 346.041 16.192C346.681 14.9973 347.598 13.9733 348.793 13.12C350.03 12.224 351.566 11.52 353.401 11.008C355.236 10.496 357.369 10.24 359.801 10.24C364.537 10.24 367.972 11.2213 370.105 13.184C372.238 15.1467 373.305 17.92 373.305 21.504C373.305 21.9733 373.241 22.8267 373.113 24.064C373.028 25.2587 372.9 26.5387 372.729 27.904C372.601 29.2267 372.473 30.4853 372.345 31.68C372.26 32.8747 372.217 33.7067 372.217 34.176C372.217 35.2427 372.409 36.0107 372.793 36.48C373.177 36.9067 373.604 37.2053 374.073 37.376C374.585 37.5467 375.033 37.6747 375.417 37.76C375.801 37.8453 375.993 38.0587 375.993 38.4C375.993 39.3387 375.865 40.2987 375.609 41.28C375.353 42.2613 374.926 43.1573 374.329 43.968C373.774 44.7787 372.985 45.44 371.961 45.952C370.98 46.464 369.764 46.72 368.313 46.72C366.265 46.72 364.729 46.2293 363.705 45.248C362.681 44.2667 361.998 42.9013 361.657 41.152C360.633 42.6453 359.289 43.9467 357.625 45.056C356.004 46.1653 353.87 46.72 351.225 46.72C349.945 46.72 348.729 46.5707 347.577 46.272C346.468 45.9733 345.486 45.4827 344.633 44.8C343.822 44.1173 343.161 43.2427 342.649 42.176C342.18 41.0667 341.945 39.744 341.945 38.208ZM361.849 30.912C360.74 30.912 359.652 30.9973 358.585 31.168C357.518 31.3387 356.558 31.616 355.705 32C354.894 32.3413 354.233 32.8107 353.721 33.408C353.209 34.0053 352.953 34.7307 352.953 35.584C352.953 36.5653 353.252 37.248 353.849 37.632C354.489 38.016 355.172 38.208 355.897 38.208C356.58 38.208 357.262 38.0587 357.945 37.76C358.628 37.4613 359.225 37.0133 359.737 36.416C360.292 35.776 360.761 35.008 361.145 34.112C361.529 33.216 361.764 32.1493 361.849 30.912Z" fill="#FF4F00"/>
<path d="M154.969 78V70H155.938V73.5625H160.203V70H161.172V78H160.203V74.4219H155.938V78H154.969ZM167.511 78V70H172.339V70.8594H168.48V73.5625H172.089V74.4219H168.48V77.1406H172.402V78H167.511ZM178.814 78H177.798L180.736 70H181.736L184.673 78H183.657L181.267 71.2656H181.204L178.814 78ZM179.189 74.875H183.282V75.7344H179.189V74.875ZM190.319 78V70H191.288V77.1406H195.007V78H190.319ZM199.406 70.8594V70H205.406V70.8594H202.89V78H201.921V70.8594H199.406ZM211.301 78V70H212.27V73.5625H216.535V70H217.504V78H216.535V74.4219H212.27V78H211.301ZM230.281 72.5H229.312C229.255 72.2214 229.155 71.9766 229.011 71.7656C228.871 71.5547 228.699 71.3776 228.496 71.2344C228.295 71.0885 228.073 70.9792 227.828 70.9062C227.583 70.8333 227.328 70.7969 227.062 70.7969C226.578 70.7969 226.139 70.9193 225.746 71.1641C225.355 71.4089 225.044 71.7695 224.812 72.2461C224.583 72.7227 224.468 73.3073 224.468 74C224.468 74.6927 224.583 75.2773 224.812 75.7539C225.044 76.2305 225.355 76.5911 225.746 76.8359C226.139 77.0807 226.578 77.2031 227.062 77.2031C227.328 77.2031 227.583 77.1667 227.828 77.0937C228.073 77.0208 228.295 76.9128 228.496 76.7695C228.699 76.6237 228.871 76.4453 229.011 76.2344C229.155 76.0208 229.255 75.776 229.312 75.5H230.281C230.208 75.9089 230.075 76.2747 229.882 76.5977C229.69 76.9206 229.45 77.1953 229.164 77.4219C228.877 77.6458 228.556 77.8164 228.199 77.9336C227.845 78.0508 227.466 78.1094 227.062 78.1094C226.38 78.1094 225.773 77.9427 225.242 77.6094C224.711 77.276 224.293 76.8021 223.988 76.1875C223.683 75.5729 223.531 74.8437 223.531 74C223.531 73.1562 223.683 72.4271 223.988 71.8125C224.293 71.1979 224.711 70.724 225.242 70.3906C225.773 70.0573 226.38 69.8906 227.062 69.8906C227.466 69.8906 227.845 69.9492 228.199 70.0664C228.556 70.1836 228.877 70.3555 229.164 70.582C229.45 70.806 229.69 71.0794 229.882 71.4023C230.075 71.7227 230.208 72.0885 230.281 72.5ZM236.574 78H235.559L238.496 70H239.496L242.434 78H241.418L239.028 71.2656H238.965L236.574 78ZM236.949 74.875H241.043V75.7344H236.949V74.875ZM248.08 78V70H250.783C251.408 70 251.921 70.1068 252.322 70.3203C252.723 70.5312 253.02 70.8216 253.213 71.1914C253.405 71.5612 253.502 71.9818 253.502 72.4531C253.502 72.9245 253.405 73.3424 253.213 73.707C253.02 74.0716 252.724 74.3581 252.326 74.5664C251.928 74.7721 251.418 74.875 250.799 74.875H248.611V74H250.767C251.194 74 251.538 73.9375 251.799 73.8125C252.062 73.6875 252.252 73.5104 252.369 73.2812C252.489 73.0495 252.549 72.7734 252.549 72.4531C252.549 72.1328 252.489 71.8529 252.369 71.6133C252.249 71.3737 252.058 71.1888 251.795 71.0586C251.532 70.9258 251.184 70.8594 250.752 70.8594H249.049V78H248.08ZM251.846 74.4062L253.814 78H252.689L250.752 74.4062H251.846ZM259.516 78V70H264.344V70.8594H260.485V73.5625H264.094V74.4219H260.485V77.1406H264.407V78H259.516ZM282.359 72C282.312 71.6042 282.122 71.2969 281.789 71.0781C281.455 70.8594 281.046 70.75 280.562 70.75C280.208 70.75 279.898 70.8073 279.632 70.9219C279.369 71.0365 279.164 71.194 279.015 71.3945C278.869 71.5951 278.796 71.8229 278.796 72.0781C278.796 72.2917 278.847 72.4753 278.949 72.6289C279.053 72.7799 279.186 72.9062 279.347 73.0078C279.509 73.1068 279.678 73.1888 279.855 73.2539C280.032 73.3164 280.195 73.3672 280.343 73.4062L281.156 73.625C281.364 73.6797 281.596 73.7552 281.851 73.8516C282.109 73.9479 282.355 74.0794 282.589 74.2461C282.826 74.4102 283.022 74.6211 283.175 74.8789C283.329 75.1367 283.406 75.4531 283.406 75.8281C283.406 76.2604 283.293 76.651 283.066 77C282.842 77.349 282.514 77.6263 282.082 77.832C281.652 78.0378 281.13 78.1406 280.515 78.1406C279.942 78.1406 279.446 78.0482 279.027 77.8633C278.61 77.6784 278.282 77.4206 278.043 77.0898C277.806 76.7591 277.671 76.375 277.64 75.9375H278.64C278.666 76.2396 278.768 76.4896 278.945 76.6875C279.125 76.8828 279.351 77.0286 279.625 77.125C279.901 77.2187 280.198 77.2656 280.515 77.2656C280.885 77.2656 281.217 77.2057 281.511 77.0859C281.806 76.9635 282.039 76.7943 282.211 76.5781C282.382 76.3594 282.468 76.1042 282.468 75.8125C282.468 75.5469 282.394 75.3307 282.246 75.1641C282.097 74.9974 281.902 74.862 281.66 74.7578C281.418 74.6536 281.156 74.5625 280.875 74.4844L279.89 74.2031C279.265 74.0234 278.77 73.7669 278.406 73.4336C278.041 73.1003 277.859 72.6641 277.859 72.125C277.859 71.6771 277.98 71.2865 278.222 70.9531C278.467 70.6172 278.795 70.3568 279.207 70.1719C279.621 69.9844 280.083 69.8906 280.593 69.8906C281.109 69.8906 281.567 69.9831 281.968 70.168C282.369 70.3503 282.687 70.6003 282.921 70.918C283.158 71.2357 283.283 71.5964 283.296 72H282.359ZM296.149 74C296.149 74.8437 295.996 75.5729 295.692 76.1875C295.387 76.8021 294.969 77.276 294.438 77.6094C293.906 77.9427 293.3 78.1094 292.617 78.1094C291.935 78.1094 291.328 77.9427 290.797 77.6094C290.266 77.276 289.848 76.8021 289.543 76.1875C289.238 75.5729 289.086 74.8437 289.086 74C289.086 73.1562 289.238 72.4271 289.543 71.8125C289.848 71.1979 290.266 70.724 290.797 70.3906C291.328 70.0573 291.935 69.8906 292.617 69.8906C293.3 69.8906 293.906 70.0573 294.438 70.3906C294.969 70.724 295.387 71.1979 295.692 71.8125C295.996 72.4271 296.149 73.1562 296.149 74ZM295.211 74C295.211 73.3073 295.095 72.7227 294.863 72.2461C294.634 71.7695 294.323 71.4089 293.93 71.1641C293.539 70.9193 293.102 70.7969 292.617 70.7969C292.133 70.7969 291.694 70.9193 291.301 71.1641C290.91 71.4089 290.599 71.7695 290.367 72.2461C290.138 72.7227 290.024 73.3073 290.024 74C290.024 74.6927 290.138 75.2773 290.367 75.7539C290.599 76.2305 290.91 76.5911 291.301 76.8359C291.694 77.0807 292.133 77.2031 292.617 77.2031C293.102 77.2031 293.539 77.0807 293.93 76.8359C294.323 76.5911 294.634 76.2305 294.863 75.7539C295.095 75.2773 295.211 74.6927 295.211 74ZM302.178 78V70H303.146V77.1406H306.865V78H302.178ZM318.015 70H318.984V75.2969C318.984 75.8437 318.855 76.332 318.597 76.7617C318.342 77.1888 317.981 77.526 317.515 77.7734C317.049 78.0182 316.502 78.1406 315.874 78.1406C315.247 78.1406 314.7 78.0182 314.234 77.7734C313.768 77.526 313.406 77.1888 313.148 76.7617C312.893 76.332 312.765 75.8437 312.765 75.2969V70H313.734V75.2188C313.734 75.6094 313.82 75.957 313.992 76.2617C314.163 76.5638 314.408 76.8021 314.726 76.9766C315.046 77.1484 315.429 77.2344 315.874 77.2344C316.32 77.2344 316.703 77.1484 317.023 76.9766C317.343 76.8021 317.588 76.5638 317.757 76.2617C317.929 75.957 318.015 75.6094 318.015 75.2188V70ZM324.881 70.8594V70H330.881V70.8594H328.365V78H327.396V70.8594H324.881ZM337.745 70V78H336.776V70H337.745ZM350.837 74C350.837 74.8437 350.685 75.5729 350.38 76.1875C350.075 76.8021 349.657 77.276 349.126 77.6094C348.595 77.9427 347.988 78.1094 347.306 78.1094C346.624 78.1094 346.017 77.9427 345.486 77.6094C344.954 77.276 344.536 76.8021 344.232 76.1875C343.927 75.5729 343.775 74.8437 343.775 74C343.775 73.1562 343.927 72.4271 344.232 71.8125C344.536 71.1979 344.954 70.724 345.486 70.3906C346.017 70.0573 346.624 69.8906 347.306 69.8906C347.988 69.8906 348.595 70.0573 349.126 70.3906C349.657 70.724 350.075 71.1979 350.38 71.8125C350.685 72.4271 350.837 73.1562 350.837 74ZM349.9 74C349.9 73.3073 349.784 72.7227 349.552 72.2461C349.323 71.7695 349.012 71.4089 348.618 71.1641C348.228 70.9193 347.79 70.7969 347.306 70.7969C346.821 70.7969 346.383 70.9193 345.989 71.1641C345.599 71.4089 345.288 71.7695 345.056 72.2461C344.827 72.7227 344.712 73.3073 344.712 74C344.712 74.6927 344.827 75.2773 345.056 75.7539C345.288 76.2305 345.599 76.5911 345.989 76.8359C346.383 77.0807 346.821 77.2031 347.306 77.2031C347.79 77.2031 348.228 77.0807 348.618 76.8359C349.012 76.5911 349.323 76.2305 349.552 75.7539C349.784 75.2773 349.9 74.6927 349.9 74ZM363.21 70V78H362.272L357.913 71.7187H357.835V78H356.866V70H357.804L362.179 76.2969H362.257V70H363.21ZM373.923 72C373.876 71.6042 373.686 71.2969 373.353 71.0781C373.02 70.8594 372.611 70.75 372.126 70.75C371.772 70.75 371.462 70.8073 371.197 70.9219C370.934 71.0365 370.728 71.194 370.579 71.3945C370.434 71.5951 370.361 71.8229 370.361 72.0781C370.361 72.2917 370.412 72.4753 370.513 72.6289C370.617 72.7799 370.75 72.9062 370.912 73.0078C371.073 73.1068 371.242 73.1888 371.419 73.2539C371.596 73.3164 371.759 73.3672 371.908 73.4062L372.72 73.625C372.928 73.6797 373.16 73.7552 373.415 73.8516C373.673 73.9479 373.919 74.0794 374.154 74.2461C374.391 74.4102 374.586 74.6211 374.74 74.8789C374.893 75.1367 374.97 75.4531 374.97 75.8281C374.97 76.2604 374.857 76.651 374.63 77C374.406 77.349 374.078 77.6263 373.646 77.832C373.216 78.0378 372.694 78.1406 372.079 78.1406C371.507 78.1406 371.01 78.0482 370.591 77.8633C370.175 77.6784 369.846 77.4206 369.607 77.0898C369.37 76.7591 369.236 76.375 369.204 75.9375H370.204C370.231 76.2396 370.332 76.4896 370.509 76.6875C370.689 76.8828 370.915 77.0286 371.189 77.125C371.465 77.2187 371.762 77.2656 372.079 77.2656C372.449 77.2656 372.781 77.2057 373.076 77.0859C373.37 76.9635 373.603 76.7943 373.775 76.5781C373.947 76.3594 374.033 76.1042 374.033 75.8125C374.033 75.5469 373.958 75.3307 373.81 75.1641C373.662 74.9974 373.466 74.862 373.224 74.7578C372.982 74.6536 372.72 74.5625 372.439 74.4844L371.454 74.2031C370.829 74.0234 370.335 73.7669 369.97 73.4336C369.606 73.1003 369.423 72.6641 369.423 72.125C369.423 71.6771 369.544 71.2865 369.787 70.9531C370.031 70.6172 370.359 70.3568 370.771 70.1719C371.185 69.9844 371.647 69.8906 372.158 69.8906C372.673 69.8906 373.132 69.9831 373.533 70.168C373.934 70.3503 374.251 70.6003 374.486 70.918C374.723 71.2357 374.848 71.5964 374.861 72H373.923Z" fill="#001052"/>
<path d="M155 70L155 78L62 75.3333L155 70Z" fill="#001052"/>
</svg>
